<svg xmlns="http://www.w3.org/2000/svg" viewBox="0 0 120 120" fill="none">
  <!-- Background rounded square -->
  <rect x="10" y="10" width="100" height="100" rx="20" fill="#007AFF"/>

  <!-- Calendar/planner grid lines -->
  <rect x="25" y="35" width="70" height="60" rx="6" fill="white" fill-opacity="0.95"/>

  <!-- Header bar -->
  <rect x="25" y="25" width="70" height="18" rx="6" fill="white"/>
  <circle cx="38" cy="34" r="4" fill="#007AFF"/>
  <circle cx="52" cy="34" r="4" fill="#007AFF"/>
  <circle cx="66" cy="34" r="4" fill="#007AFF"/>

  <!-- Grid lines -->
  <line x1="25" y1="55" x2="95" y2="55" stroke="#007AFF" stroke-opacity="0.2" stroke-width="1.5"/>
  <line x1="25" y1="75" x2="95" y2="75" stroke="#007AFF" stroke-opacity="0.2" stroke-width="1.5"/>
  <line x1="48" y1="43" x2="48" y2="95" stroke="#007AFF" stroke-opacity="0.2" stroke-width="1.5"/>
  <line x1="72" y1="43" x2="72" y2="95" stroke="#007AFF" stroke-opacity="0.2" stroke-width="1.5"/>

  <!-- Checkmark -->
  <path d="M52 68 L58 74 L70 58" stroke="#007AFF" stroke-width="4" stroke-linecap="round" stroke-linejoin="round" fill="none"/>

  <!-- Small accent dots for tasks -->
  <circle cx="36" cy="49" r="3" fill="#007AFF" fill-opacity="0.6"/>
  <circle cx="36" cy="65" r="3" fill="#007AFF" fill-opacity="0.4"/>
  <circle cx="36" cy="85" r="3" fill="#007AFF" fill-opacity="0.3"/>
  <circle cx="84" cy="49" r="3" fill="#007AFF" fill-opacity="0.5"/>
  <circle cx="84" cy="85" r="3" fill="#007AFF" fill-opacity="0.4"/>
</svg>
